<?xml version="1.0" standalone="no"?>
<!DOCTYPE svg PUBLIC "-//W3C//DTD SVG 20010904//EN" "http://www.w3.org/TR/2001/REC-SVG-20010904/DTD/svg10.dtd">
<svg version="1.0" xmlns="http://www.w3.org/2000/svg"
    width="300.000000pt" height="300.000000pt" viewBox="0 0 300.000000 300.000000"
    preserveAspectRatio="xMidYMid meet">

    <g transform="translate(0.000000,300.000000) scale(0.100000,-0.100000)"
        fill="#000000" stroke="none">
        <path
            d="M1443 2894 c-73 -36 -147 -146 -179 -267 -20 -75 -18 -193 5 -242 34
-76 31 -75 235 -75 204 0 199 -2 233 75 12 28 17 65 16 125 -1 149 -73 305
-171 370 -51 34 -91 38 -139 14z" />
        <path
            d="M570 2471 c0 -21 -3 -53 -6 -71 -6 -29 -9 -31 -37 -26 l-30 6 7 -46
c13 -101 70 -188 161 -246 95 -62 95 -62 186 28 43 43 79 82 79 85 0 4 -12 10
-26 13 -65 17 -141 122 -160 220 l-7 40 -24 -28 -23 -27 -28 19 c-15 11 -38
32 -51 46 -33 35 -41 33 -41 -13z" />
        <path
            d="M2365 2460 l-49 -49 -20 29 c-12 16 -23 30 -26 30 -4 0 -11 -26 -18
-58 -17 -84 -60 -145 -127 -183 l-57 -32 78 -78 c43 -44 85 -79 92 -79 8 0 41
14 74 32 100 53 173 155 185 259 l6 49 -30 -6 -30 -6 -7 71 c-4 39 -10 71 -14
71 -4 0 -30 -22 -57 -50z" />
        <path
            d="M871 2036 l-214 -214 22 -111 c98 -491 354 -879 716 -1086 44 -25 90
-45 103 -45 34 0 153 65 242 131 279 207 483 547 574 951 14 64 26 126 26 139
0 18 -54 79 -213 237 l-212 212 -415 0 -415 0 -214 -214z m997 130 c15 -8 107
-95 205 -194 174 -176 179 -181 172 -214 -88 -439 -260 -743 -540 -954 -71
-54 -182 -110 -194 -99 -3 4 -7 330 -9 725 -2 646 -1 720 14 734 22 22 311 23
352 2z" />
        <path
            d="M758 1073 c-64 -66 -88 -116 -88 -182 0 -71 32 -126 99 -172 28 -19
51 -38 51 -44 0 -5 -9 -56 -20 -113 -21 -106 -25 -162 -13 -162 4 0 23 16 43
35 l36 35 29 -50 c16 -28 32 -50 35 -50 3 0 18 21 33 46 l27 45 27 -21 c14
-11 28 -19 30 -16 2 2 -1 47 -6 101 -7 66 -7 114 1 149 13 67 -7 113 -52 123
-34 6 -40 35 -14 64 16 17 13 22 -35 75 -28 31 -68 85 -89 120 -20 35 -39 64
-42 64 -3 0 -27 -21 -52 -47z" />
        <path
            d="M2163 1076 c-12 -24 -51 -80 -87 -124 -46 -58 -60 -82 -50 -86 8 -3
14 -19 14 -36 0 -22 -5 -30 -18 -30 -20 0 -42 -21 -61 -57 -8 -17 -8 -33 1
-67 9 -33 9 -70 1 -148 -6 -56 -9 -105 -7 -107 2 -3 15 6 29 19 25 23 25 23
40 4 8 -10 19 -31 26 -47 6 -15 15 -27 19 -27 5 0 20 20 34 45 15 25 30 45 35
45 4 0 20 -13 36 -30 16 -16 32 -30 37 -30 14 0 9 75 -12 182 -11 59 -16 104
-11 106 28 9 94 67 117 102 38 58 42 116 12 182 -21 46 -109 148 -128 148 -3
0 -16 -20 -27 -44z" />
        <path
            d="M1350 519 c46 -84 64 -182 57 -316 l-5 -113 28 15 c62 32 143 165
194 315 25 78 42 150 33 150 -2 0 -37 -13 -77 -30 -40 -16 -80 -30 -89 -30 -9
0 -43 12 -76 26 -100 42 -98 43 -65 -17z" />
    </g>
</svg>